<svg width="14" height="14" viewBox="0 0 14 14" fill="none" xmlns="http://www.w3.org/2000/svg">
<path d="M11.9602 2.03468C10.6446 0.72344 8.89402 0.000793246 7.02948 0C3.18725 0 0.059761 3.1119 0.0581673 6.93694C0.0573705 8.15933 0.378486 9.35316 0.988845 10.405L0 14L3.69562 13.0354C4.71394 13.5883 5.85976 13.8794 7.02709 13.8794H7.03028C10.8717 13.8794 13.9992 10.7675 14.0008 6.9417C14.0008 5.08867 13.2765 3.34591 11.9602 2.03468ZM7.02948 12.7086H7.02709C5.98725 12.7078 4.96733 12.4302 4.07809 11.905L3.86614 11.7797L1.67331 12.3516L2.25896 10.2241L2.12112 10.006C1.54104 9.08822 1.23506 8.02686 1.23506 6.93773C1.23665 3.7584 3.83506 1.17162 7.03108 1.17162C8.57849 1.17242 10.0335 1.7729 11.1275 2.86282C12.2215 3.95274 12.8239 5.40121 12.8231 6.94249C12.8215 10.1218 10.2231 12.7086 7.02948 12.7086ZM10.2072 8.38937C10.0327 8.30291 9.17689 7.88328 9.01673 7.82537C8.85737 7.76747 8.74104 7.73891 8.6247 7.91184C8.50837 8.08556 8.1745 8.47583 8.07331 8.59165C7.97211 8.70746 7.87012 8.72174 7.69562 8.63528C7.52112 8.54881 6.96016 8.36557 6.29482 7.7746C5.77689 7.31532 5.42709 6.74735 5.3259 6.57363C5.2247 6.39991 5.31474 6.30631 5.40239 6.21984C5.48048 6.1421 5.57689 6.01756 5.66375 5.91603C5.7506 5.81449 5.78008 5.74231 5.83825 5.62649C5.89641 5.51068 5.86693 5.40994 5.8239 5.32268C5.78008 5.23622 5.43187 4.38268 5.28685 4.03524C5.14582 3.69732 5.00159 3.74333 4.89482 3.73778C4.79363 3.73302 4.67729 3.73143 4.56096 3.73143C4.44462 3.73143 4.25578 3.77506 4.09641 3.94799C3.93705 4.12171 3.48685 4.54054 3.48685 5.39407C3.48685 6.24761 4.11076 7.07179 4.19841 7.18681C4.28526 7.30262 5.42629 9.05332 7.17371 9.80452C7.58884 9.983 7.91394 10.0901 8.16653 10.1694C8.58406 10.3011 8.96335 10.2828 9.26375 10.2384C9.59841 10.1885 10.294 9.8188 10.439 9.41424C10.5841 9.00969 10.5841 8.66225 10.541 8.59006C10.498 8.52026 10.3817 8.47663 10.2072 8.38937Z" fill="white"/>
</svg>
